# xmcd CD database file
#
# Track frame offsets:
#	150
#	14417
#	30847
#	44055
#	56037
#	74020
#	94265
#	126082
#	142740
#	160465
#	185167
#	205645
#
# Disc length: 3013 seconds
#
# Revision: 2
# Processed by: cddbd v1.5.1PL2 Copyright (c) Steve Scherf et al.
# Submitted via: CDex 1.51
#
DISCID=ad0bc30c
DTITLE=?????? - ????-1972?1986- Disc 1
DYEAR=1997
DGENRE=New Age
TTITLE0=???????
TTITLE1=???
TTITLE2=?????
TTITLE3=????
TTITLE4=????
TTITLE5=??????
TTITLE6=?????
TTITLE7=???????
TTITLE8=???????
TTITLE9=????????
TTITLE10=?????????
TTITLE11=WAKE UP
EXTD=YEAR: 1997
EXTT0=
EXTT1=
EXTT2=
EXTT3=
EXTT4=
EXTT5=
EXTT6=
EXTT7=
EXTT8=
EXTT9=
EXTT10=
EXTT11=
PLAYORDER=
